{"title":"Professor Green ft. Tori Kelly - Lullaby (2014.Pop)","uid":11113741,"size":80154428,"categoryP":"video","categoryS":"music_videos","magnet":"?xt=urn:btih:be3a78e204faf6ae25c0e364f438f4680da06a49&amp;dn=Professor+Green+ft.+Tori+Kelly+-+Lullaby+%282014.Pop%29&amp;tr=udp%3A%2F%2Ftracker.openbittorrent.com%3A80&amp;tr=udp%3A%2F%2Fopen.demonii.com%3A1337&amp;tr=udp%3A%2F%2Ftracker.coppersurfer.tk%3A6969&amp;tr=udp%3A%2F%2Fexodus.desync.com%3A6969","seeders":0,"leechers":0,"uploader":"MeRaDil","files":-1,"time":1411838806,"description":"PROFESSOR GREEN ft.TORI KELLY - LULLABY\n\n\n\nMPEG4 PROMO MUSIC VID\n\n &lt;a href=&quot;\nhttp://gifyu.com/images/ProfessorGreen.png&quot; rel=&quot;nofollow&quot; target=&quot;_NEW&quot;&gt;\nhttp://gifyu.com/images/ProfessorGreen.png&lt;/a&gt;\n\n\nGeneral\nComplete name                            : Professor Green ft. Tori Kelly - Lullaby\nFormat                                   : MPEG-4\nFormat profile                           : Base Media\nCodec ID                                 : isom\nFile size                                : 76.4 MiB\nDuration                                 : 4mn 58s\nOverall bit rate                         : 2 147 Kbps\nMovie name                               : Lullaby\nMovie name/More                          : Professor Green &amp; Tori Kelly\nPerformer                                : Professor Green ft. Tori Kelly\nGenre                                    : Pop\nContentType                              : Music Video\nRecorded date                            : 2014\nCopyright                                : Professor Green\nCover                                    : Yes\nRating                                   : ***\nMake                                     : MeRaDil\noday                                     : 07-08-2014  UK\nlabl                                     : Virgin\nrelease                                  : UK - august 7 - 2014\nPart_ID                                  : Lullaby\n\nVideo\nID                                       : 1\nFormat                                   : AVC\nFormat/Info                              : Advanced Video Codec\nFormat profile                           : &lt;a class=&quot;__cf_email__&quot; href=&quot;/cdn-cgi/l/email-protection&quot; data-cfemail=&quot;ce86a7a9a68e82fae0fe&quot;&gt;[email&amp;#160;protected]&lt;/a&gt;&lt;script data-cfhash='f9e31' type=&quot;text/javascript&quot;&gt;\n/* &lt;![CDATA[ */!function(){try{var t=&quot;currentScript&quot;in document?document.currentScript:function(){for(var t=document.getElementsByTagName(&quot;script&quot;),e=t.length;e--;)if(t[e].getAttribute(&quot;data-cfhash&quot;))return t[e]}();if(t&amp;&amp;t.previousSibling){var e,r,n,i,c=t.previousSibling,a=c.getAttribute(&quot;data-cfemail&quot;);if(a){for(e=&quot;&quot;,r=parseInt(a.substr(0,2),16),n=2;a.length-n;n+=2)i=parseInt(a.substr(n,2),16)^r,e+=String.fromCharCode(i);e=document.createTextNode(e),c.parentNode.replaceChild(e,c)}t.parentNode.removeChild(t);}}catch(u){}}()/* ]]&gt; */&lt;/script&gt;\nFormat settings, CABAC                   : Yes\nFormat settings, ReFrames                : 3 frames\nCodec ID                                 : avc1\nCodec ID/Info                            : Advanced Video Coding\nDuration                                 : 4mn 58s\nBit rate                                 : 1 885 Kbps\nWidth                                    : 1 920 pixels\nHeight                                   : 1 080 pixels\nDisplay aspect ratio                     : 16:9\nFrame rate mode                          : Constant\nFrame rate                               : 25.000 fps\nColor space                              : YUV\nChroma subsampling                       : 4:2:0\nBit depth                                : 8 bits\nScan type                                : Progressive\nBits/(Pixel*Frame)                       : 0.036\nStream size                              : 67.1 MiB (88%)\n\nAudio\nID                                       : 2\nFormat                                   : AAC\nFormat/Info                              : Advanced Audio Codec\nFormat profile                           : LC\nCodec ID                                 : 40\nDuration                                 : 4mn 58s\nBit rate mode                            : Constant\nBit rate                                 : 256 Kbps\nChannel(s)                               : 2 channels\nChannel positions                        : Front: L R\nSampling rate                            : 44.1 KHz\nCompression mode                         : Lossy\nStream size                              : 9.11 MiB (12%)\n &lt;a href=&quot;\nhttps://thepiratebay.se/user/MeRaDil&quot; rel=&quot;nofollow&quot; target=&quot;_NEW&quot;&gt;\nhttps://thepiratebay.se/user/MeRaDil&lt;/a&gt;\n\n:)","torrent":{"xt":"urn:btih:be3a78e204faf6ae25c0e364f438f4680da06a49","amp;dn":"Professor+Green+ft.+Tori+Kelly+-+Lullaby+%282014.Pop%29","amp;tr":["udp%3A%2F%2Ftracker.openbittorrent.com%3A80","udp%3A%2F%2Fopen.demonii.com%3A1337","udp%3A%2F%2Ftracker.coppersurfer.tk%3A6969","udp%3A%2F%2Fexodus.desync.com%3A6969"],"infoHash":"be3a78e204faf6ae25c0e364f438f4680da06a49","infoHashBuffer":{"type":"Buffer","data":[190,58,120,226,4,250,246,174,37,192,227,100,244,56,244,104,13,160,106,73]},"announce":[],"urlList":[]}}